# xmcd
#
# Track frame offsets:
#	150
#	15185
#	28597
#	40107
#	50937
#	63682
#	71155
#	86305
#	97805
#	113032
#	131277
#	145212
#	159100
#	174820
#	192057
#	204562
#
# Disc length: 2890 seconds
#
# Revision: 2
# Processed by: cddbd v1.5.2PL0 Copyright (c) Steve Scherf et al.
# Submitted via: audiograbber 1.83.01
#
DISCID=c70b4810
DTITLE=Waylon Jennings and Willie Nelson - 16 Biggest Hits
DYEAR=2006
DGENRE=Country
TTITLE0=Luckenbach, Texas (Back To The Basics Of Love)
TTITLE1=Good Hearted Woman
TTITLE2=Mammas Don't Let Your Babies Grow Up To Be Cowboys
TTITLE3=I Can Get Off On You
TTITLE4=Just To Satisfy You
TTITLE5=Heaven Or Hell
TTITLE6=It's Not Supposed To Be That Way
TTITLE7=Pick Up The Tempo
TTITLE8=(Sittin' On) The Dock Of The Bay
TTITLE9=A Couple More Years
TTITLE10=The Year 2003 Minus 25
TTITLE11=If You Can Touch Her At All
TTITLE12=If I Can Find A Clean Shirt
TTITLE13=Take It To The Limit
TTITLE14=Heroes
TTITLE15=Nowhere Road
EXTD=
EXTT0=
EXTT1=
EXTT2=
EXTT3=
EXTT4=
EXTT5=
EXTT6=
EXTT7=
EXTT8=
EXTT9=
EXTT10=
EXTT11=
EXTT12=
EXTT13=
EXTT14=
EXTT15=
PLAYORDER=
